HIERARCHY
ROOT Hips
{
	OFFSET 0.000000 104.274902 0.000000
	CHANNELS 6 Xposition Yposition Zposition Xrotation Yrotation Zrotation
	JOINT Spine
	{
		OFFSET 0.000000 10.181549 0.131524
		CHANNELS 6 Xposition Yposition Zposition Xrotation Yrotation Zrotation
		JOINT Spine1
		{
			OFFSET 0.000000 9.893990 -1.470706
			CHANNELS 3 Xrotation Yrotation Zrotation
			JOINT Spine2
			{
				OFFSET 0.000000 9.220787 -1.370637
				CHANNELS 3 Xrotation Yrotation Zrotation
				JOINT Neck
				{
					OFFSET 0.000000 16.740372 -2.049022
					CHANNELS 6 Xposition Yposition Zposition Xrotation Yrotation Zrotation
					JOINT Head
					{
						OFFSET 0.000000 9.617859 1.684976
						CHANNELS 6 Xposition Yposition Zposition Xrotation Yrotation Zrotation
						JOINT HeadTop_End
						{
							OFFSET 0.000000 22.037384 7.501072
							CHANNELS 6 Xposition Yposition Zposition Xrotation Yrotation Zrotation
							End Site
							{
								OFFSET 0.000000 23.106567 -2.828246
							}
						}
					}
				}
				JOINT RightShoulder
				{
					OFFSET -4.570000 11.014877 -2.160840
					CHANNELS 6 Xposition Yposition Zposition Xrotation Yrotation Zrotation
					JOINT RightArm
					{
						OFFSET -10.592867 -0.524796 -2.232105
						CHANNELS 3 Xrotation Yrotation Zrotation
						JOINT RightForeArm
						{
							OFFSET -27.841497 0.000000 -0.000002
							CHANNELS 3 Xrotation Yrotation Zrotation
							JOINT RightHand
							{
								OFFSET -28.328812 0.000000 -0.000001
								CHANNELS 3 Xrotation Yrotation Zrotation
								JOINT RightHandThumb1
								{
									OFFSET -2.464798 -1.573990 2.681911
									CHANNELS 6 Xposition Yposition Zposition Xrotation Yrotation Zrotation
									JOINT RightHandThumb2
									{
										OFFSET -3.244781 -1.873383 1.873376
										CHANNELS 3 Xrotation Yrotation Zrotation
										JOINT RightHandThumb3
										{
											OFFSET -2.646263 -1.527817 1.527818
											CHANNELS 6 Xposition Yposition Zposition Xrotation Yrotation Zrotation
											JOINT RightHandThumb4
											{
												OFFSET -1.994591 -1.151581 1.151575
												CHANNELS 6 Xposition Yposition Zposition Xrotation Yrotation Zrotation
												End Site
												{
													OFFSET -1.860176 -1.142715 1.365483
												}
											}
										}
									}
								}
								JOINT RightHandIndex1
								{
									OFFSET -9.108299 -0.517883 2.259803
									CHANNELS 6 Xposition Yposition Zposition Xrotation Yrotation Zrotation
									JOINT RightHandIndex2
									{
										OFFSET -3.699997 0.000000 0.000000
										CHANNELS 3 Xrotation Yrotation Zrotation
										JOINT RightHandIndex3
										{
											OFFSET -2.850006 0.000000 0.000000
											CHANNELS 3 Xrotation Yrotation Zrotation
											JOINT RightHandIndex4
											{
												OFFSET -2.772194 0.000000 0.000000
												CHANNELS 3 Xrotation Yrotation Zrotation
												End Site
												{
													OFFSET -2.772202 0.000000 -0.000484
												}
											}
										}
									}
								}
								JOINT RightHandMiddle1
								{
									OFFSET -9.532501 0.000000 -0.000000
									CHANNELS 6 Xposition Yposition Zposition Xrotation Yrotation Zrotation
									JOINT RightHandMiddle2
									{
										OFFSET -3.699997 0.000000 0.000000
										CHANNELS 3 Xrotation Yrotation Zrotation
										JOINT RightHandMiddle3
										{
											OFFSET -2.949997 0.000000 0.000000
											CHANNELS 3 Xrotation Yrotation Zrotation
											JOINT RightHandMiddle4
											{
												OFFSET -2.946594 0.000000 0.000000
												CHANNELS 3 Xrotation Yrotation Zrotation
												End Site
												{
													OFFSET -2.946602 0.000000 -0.000982
												}
											}
										}
									}
								}
								JOINT RightHandRing1
								{
									OFFSET -9.103600 -0.043106 -1.865100
									CHANNELS 6 Xposition Yposition Zposition Xrotation Yrotation Zrotation
									JOINT RightHandRing2
									{
										OFFSET -3.379303 0.000000 0.000000
										CHANNELS 3 Xrotation Yrotation Zrotation
										JOINT RightHandRing3
										{
											OFFSET -2.889694 0.000000 0.000000
											CHANNELS 3 Xrotation Yrotation Zrotation
											JOINT RightHandRing4
											{
												OFFSET -2.638802 0.000000 0.000000
												CHANNELS 3 Xrotation Yrotation Zrotation
												End Site
												{
													OFFSET -2.638802 0.000000 0.004218
												}
											}
										}
									}
								}
								JOINT RightHandPinky1
								{
									OFFSET -8.076698 -0.486725 -3.806299
									CHANNELS 6 Xposition Yposition Zposition Xrotation Yrotation Zrotation
									JOINT RightHandPinky2
									{
										OFFSET -3.600006 0.000000 0.000000
										CHANNELS 3 Xrotation Yrotation Zrotation
										JOINT RightHandPinky3
										{
											OFFSET -2.099998 0.000000 0.000000
											CHANNELS 3 Xrotation Yrotation Zrotation
											JOINT RightHandPinky4
											{
												OFFSET -2.115791 0.000000 0.000000
												CHANNELS 3 Xrotation Yrotation Zrotation
												End Site
												{
													OFFSET -2.115799 0.000000 0.000174
												}
											}
										}
									}
								}
							}
						}
					}
				}
				JOINT LeftShoulder
				{
					OFFSET 4.570400 11.014679 -2.160816
					CHANNELS 6 Xposition Yposition Zposition Xrotation Yrotation Zrotation
					JOINT LeftArm
					{
						OFFSET 10.592373 -0.524597 -2.232116
						CHANNELS 3 Xrotation Yrotation Zrotation
						JOINT LeftForeArm
						{
							OFFSET 27.841488 0.000000 0.000001
							CHANNELS 3 Xrotation Yrotation Zrotation
							JOINT LeftHand
							{
								OFFSET 28.328808 0.000000 -0.000000
								CHANNELS 3 Xrotation Yrotation Zrotation
								JOINT LeftHandThumb1
								{
									OFFSET 2.466103 -1.576202 2.681698
									CHANNELS 6 Xposition Yposition Zposition Xrotation Yrotation Zrotation
									JOINT LeftHandThumb2
									{
										OFFSET 3.243317 -1.872528 1.872530
										CHANNELS 3 Xrotation Yrotation Zrotation
										JOINT LeftHandThumb3
										{
											OFFSET 2.647881 -1.528763 1.528754
											CHANNELS 6 Xposition Yposition Zposition Xrotation Yrotation Zrotation
											JOINT LeftHandThumb4
											{
												OFFSET 1.998924 -1.154083 1.154080
												CHANNELS 6 Xposition Yposition Zposition Xrotation Yrotation Zrotation
												End Site
												{
													OFFSET 1.884041 -1.149155 1.337651
												}
											}
										}
									}
								}
								JOINT LeftHandIndex1
								{
									OFFSET 9.109299 -0.518005 2.259900
									CHANNELS 6 Xposition Yposition Zposition Xrotation Yrotation Zrotation
									JOINT LeftHandIndex2
									{
										OFFSET 3.699997 0.000000 0.000000
										CHANNELS 3 Xrotation Yrotation Zrotation
										JOINT LeftHandIndex3
										{
											OFFSET 2.850006 0.000000 0.000000
											CHANNELS 3 Xrotation Yrotation Zrotation
											JOINT LeftHandIndex4
											{
												OFFSET 2.774895 0.000000 0.000000
												CHANNELS 3 Xrotation Yrotation Zrotation
												End Site
												{
													OFFSET 2.774902 0.000000 -0.000072
												}
											}
										}
									}
								}
								JOINT LeftHandMiddle1
								{
									OFFSET 9.533401 0.000000 0.000000
									CHANNELS 6 Xposition Yposition Zposition Xrotation Yrotation Zrotation
									JOINT LeftHandMiddle2
									{
										OFFSET 3.699997 0.000000 0.000000
										CHANNELS 3 Xrotation Yrotation Zrotation
										JOINT LeftHandMiddle3
										{
											OFFSET 2.949997 0.000000 0.000000
											CHANNELS 3 Xrotation Yrotation Zrotation
											JOINT LeftHandMiddle4
											{
												OFFSET 2.952896 0.000000 0.000000
												CHANNELS 3 Xrotation Yrotation Zrotation
												End Site
												{
													OFFSET 2.952904 0.000000 0.000165
												}
											}
										}
									}
								}
								JOINT LeftHandRing1
								{
									OFFSET 9.104500 -0.042999 -1.865101
									CHANNELS 6 Xposition Yposition Zposition Xrotation Yrotation Zrotation
									JOINT LeftHandRing2
									{
										OFFSET 3.149994 0.000000 0.000000
										CHANNELS 3 Xrotation Yrotation Zrotation
										JOINT LeftHandRing3
										{
											OFFSET 2.950005 0.000000 0.000000
											CHANNELS 3 Xrotation Yrotation Zrotation
											JOINT LeftHandRing4
											{
												OFFSET 2.644302 0.000000 0.000000
												CHANNELS 3 Xrotation Yrotation Zrotation
												End Site
												{
													OFFSET 2.644302 0.000000 0.000083
												}
											}
										}
									}
								}
								JOINT LeftHandPinky1
								{
									OFFSET 8.077805 -0.486893 -3.806302
									CHANNELS 6 Xposition Yposition Zposition Xrotation Yrotation Zrotation
									JOINT LeftHandPinky2
									{
										OFFSET 3.600006 0.000000 0.000000
										CHANNELS 3 Xrotation Yrotation Zrotation
										JOINT LeftHandPinky3
										{
											OFFSET 2.099998 0.000000 0.000000
											CHANNELS 3 Xrotation Yrotation Zrotation
											JOINT LeftHandPinky4
											{
												OFFSET 2.125496 0.000000 0.000000
												CHANNELS 3 Xrotation Yrotation Zrotation
												End Site
												{
													OFFSET 2.125504 0.000000 -0.001254
												}
											}
										}
									}
								}
							}
						}
					}
				}
			}
		}
	}
	JOINT RightUpLeg
	{
		OFFSET -8.207800 -6.751701 -1.599544
		CHANNELS 6 Xposition Yposition Zposition Xrotation Yrotation Zrotation
		JOINT RightLeg
		{
			OFFSET 0.000004 -44.370152 0.345934
			CHANNELS 3 Xrotation Yrotation Zrotation
			JOINT RightFoot
			{
				OFFSET 0.000004 -44.423664 -3.043535
				CHANNELS 3 Xrotation Yrotation Zrotation
				JOINT RightToeBase
				{
					OFFSET 0.000001 -8.728691 10.710592
					CHANNELS 3 Xrotation Yrotation Zrotation
					JOINT RightToe_End
					{
						OFFSET 0.000000 -0.000665 9.278101
						CHANNELS 3 Xrotation Yrotation Zrotation
						End Site
						{
							OFFSET 0.000000 -0.000665 9.278103
						}
					}
				}
			}
		}
	}
	JOINT LeftUpLeg
	{
		OFFSET 8.207800 -6.751701 -1.599544
		CHANNELS 6 Xposition Yposition Zposition Xrotation Yrotation Zrotation
		JOINT LeftLeg
		{
			OFFSET 0.000004 -44.370037 0.346940
			CHANNELS 3 Xrotation Yrotation Zrotation
			JOINT LeftFoot
			{
				OFFSET 0.000004 -44.423611 -3.044388
				CHANNELS 3 Xrotation Yrotation Zrotation
				JOINT LeftToeBase
				{
					OFFSET 0.000001 -8.728690 10.710592
					CHANNELS 3 Xrotation Yrotation Zrotation
					JOINT LeftToe_End
					{
						OFFSET 0.000000 -0.000680 9.278101
						CHANNELS 3 Xrotation Yrotation Zrotation
						End Site
						{
							OFFSET 0.000000 -0.000680 9.278101
						}
					}
				}
			}
		}
	}
}
MOTION
Frames: 4
Frame Time: 0.033333
-1.631063 126.117783 -220.228348 13.458990 -171.643091 -1.262646 -0.000002 10.181574 0.131549 40.103954 6.495640 5.176799 0.959531 0.232352 2.820846 0.949276 0.433666 2.802244 0.000001 16.740353 -2.049048 6.012279 -2.131459 -0.840765 -0.000006 9.617826 1.684970 3.819499 -13.800835 5.704886 -0.000001 22.037384 7.501089 -0.000001 -0.000000 0.000000 -4.569999 11.014879 -2.160861 -0.411853 -4.407043 -2.126735 13.751219 -3.499141 31.783684 -0.000009 22.187637 0.000023 -3.960115 -21.473217 -1.757800 -2.464797 -1.573995 2.681944 -23.076108 1.237618 -5.901668 7.558800 -24.698789 -2.907496 -2.646232 -1.527809 1.527834 -7.757054 5.812209 -12.465585 -1.994568 -1.151580 1.151576 -0.000000 0.000002 0.000000 -9.108304 -0.517849 2.259824 0.378213 -0.557772 -21.673497 0.172822 -1.258182 15.640795 0.056405 -0.723402 8.916816 0.000001 -0.000002 0.000004 -9.532484 0.000035 0.000033 -5.361978 -6.050462 -7.969650 0.301230 -1.649326 20.699471 0.052391 -0.697362 8.593186 0.000001 -0.000002 0.000002 -9.103595 -0.043095 -1.865077 -0.170154 -11.033227 0.180505 0.658786 -2.389867 30.818900 0.104547 -0.982357 12.151043 0.000001 -0.000003 0.000003 -8.076689 -0.486722 -3.806289 2.848624 -9.502496 5.693258 0.264107 -1.547537 19.368398 0.187050 -1.307968 16.276923 -0.000000 -0.000001 0.000003 4.570403 11.014665 -2.160856 -0.677060 6.073579 5.639777 -6.328226 -6.529797 27.695891 -0.000002 -13.480899 0.000022 -7.383824 -12.118140 24.359252 2.466138 -1.576192 2.681746 -0.026354 9.978436 4.166207 6.585498 17.101209 1.767186 2.647877 -1.528789 1.528727 -12.365398 -22.295356 4.889348 1.998969 -1.154088 1.154083 -0.000004 -0.000002 0.000000 9.109354 -0.518012 2.259980 -2.905046 -8.182426 16.472751 0.021225 0.498938 -4.874736 0.000326 -0.061434 0.599533 0.000000 -0.000000 -0.000000 9.533439 0.000000 0.000054 0.647980 4.375674 16.799813 0.102426 1.091937 -10.719079 0.210030 -1.556052 15.371727 0.000000 -0.000000 0.000000 9.104519 -0.042990 -1.865061 1.496371 2.955753 15.192757 0.040682 0.690038 -6.749444 0.018167 0.461556 -4.508652 -0.000000 0.000003 0.000001 8.077845 -0.486887 -3.806256 -0.884396 12.774909 6.356238 0.035550 0.645122 -6.308090 0.050662 -0.769589 7.531808 -0.000001 0.000002 0.000001 -8.207805 -6.751712 -1.599531 -47.184900 -8.762457 -14.946059 110.739285 3.531724 0.526524 -5.362191 0.744064 -6.237225 -0.707134 -0.000000 0.000001 -0.000002 -0.000000 0.000000 8.207797 -6.751696 -1.599544 -48.656287 4.172734 1.533086 31.617912 1.163198 -1.793906 31.453885 3.702958 7.030253 -3.690958 0.000010 -0.000002 0.000000 -0.000001 -0.000000 
-1.971337 121.707741 -237.508133 12.597841 -166.848804 -3.441793 -0.000004 10.181552 0.131548 36.420584 1.670410 8.812747 2.125963 -0.517909 3.750279 2.139157 -0.272402 3.771626 0.000001 16.740374 -2.049037 7.416936 -1.825291 -0.793407 0.000000 9.617845 1.684926 3.048422 -11.657872 2.569242 0.000000 22.037445 7.501102 -0.000002 0.000000 0.000001 -4.570000 11.014913 -2.160833 -0.964934 -7.163290 -1.246000 18.830212 -8.222771 40.488692 -0.000024 22.343478 0.000034 -1.604741 -23.427192 -2.941392 -2.464792 -1.573991 2.681890 -23.367074 1.222310 -6.021356 8.226702 -26.295680 -2.673081 -2.646222 -1.527799 1.527841 -7.771125 5.812838 -12.477302 -1.994598 -1.151607 1.151568 -0.000004 0.000004 -0.000003 -9.108295 -0.517895 2.259784 0.302473 -0.762101 -18.999308 0.143235 -1.147322 14.231982 0.040037 -0.609882 7.508454 0.000001 -0.000008 0.000009 -9.532511 -0.000033 -0.000010 -3.603616 -5.488010 -5.796599 0.294009 -1.630123 20.447242 0.049386 -0.677056 8.341095 0.000001 -0.000002 -0.000001 -9.103600 -0.043126 -1.865108 -0.098258 -11.037552 0.647715 0.651526 -2.377630 30.643832 0.101586 -0.968431 11.976238 0.000002 0.000002 -0.000001 -8.076697 -0.486746 -3.806304 2.782931 -9.007372 6.374319 0.268853 -1.560982 19.543543 0.191094 -1.321637 16.452044 -0.000001 0.000001 -0.000000 4.570400 11.014688 -2.160827 -0.804629 5.467440 8.845689 -6.816817 -11.864252 29.544550 0.000003 -15.820344 0.000006 -9.378995 -18.881546 20.596096 2.466175 -1.576180 2.681752 1.166908 11.798013 3.496254 6.585642 17.101873 1.767122 2.647872 -1.528757 1.528743 -11.541205 -19.928112 5.303265 1.998939 -1.154073 1.154046 0.000001 -0.000007 -0.000003 9.109356 -0.518032 2.259946 -3.254374 -8.032880 14.222954 0.024723 0.538260 -5.259772 0.000314 -0.059315 0.578807 -0.000003 -0.000001 0.000003 9.533450 0.000004 0.000041 0.510468 5.639719 15.216318 0.121101 1.186359 -11.658564 0.189804 -1.480524 14.608212 0.000000 0.000002 0.000001 9.104533 -0.043025 -1.865063 1.655777 3.194843 12.209292 0.048965 0.756685 -7.404868 0.023902 0.529433 -5.173442 0.000001 0.000003 0.000000 8.077852 -0.486887 -3.806261 -0.651663 12.888672 5.190245 0.048427 0.752601 -7.364681 0.035202 -0.642024 6.277770 0.000003 -0.000006 0.000001 -8.207805 -6.751694 -1.599529 -52.309567 -7.576347 -15.305860 103.415341 4.237934 2.233887 -7.791557 1.134880 -5.662402 -3.192021 -0.000000 0.000003 -0.000002 0.000000 0.000000 8.207797 -6.751726 -1.599529 -42.444175 6.530134 3.034760 29.235566 -1.927604 -1.789148 34.849719 3.844967 5.295848 -2.529132 -0.000007 -0.000001 -0.000000 -0.000002 -0.000001 
-2.234063 116.308182 -255.289688 11.535952 -163.985219 -5.222051 0.000002 10.181563 0.131559 31.879679 -4.028170 10.900495 3.605776 -1.204987 4.191507 3.661236 -0.962710 4.216676 0.000000 16.740345 -2.049064 9.044709 -1.274528 -1.550643 0.000001 9.617911 1.684968 3.268126 -8.854200 -0.295933 -0.000001 22.037384 7.501091 -0.000003 -0.000000 -0.000000 -4.569999 11.014879 -2.160862 -1.776469 -12.157972 0.124217 22.381137 -10.921591 49.244465 -0.000017 19.619882 0.000019 -3.379331 -23.230016 -5.135729 -2.464824 -1.574014 2.681857 -23.682498 1.206713 -6.152039 9.953544 -30.184839 -2.037386 -2.646258 -1.527804 1.527820 -7.818195 5.815068 -12.516603 -1.994588 -1.151567 1.151587 0.000001 0.000003 -0.000001 -9.108312 -0.517894 2.259769 0.203116 -1.089011 -14.805545 0.117925 -1.042453 12.907047 0.027155 -0.502764 6.183882 -0.000003 -0.000004 0.000004 -9.532524 -0.000025 -0.000041 -1.755703 -4.604680 -2.029287 0.292999 -1.627405 20.411745 0.048967 -0.674199 8.305635 -0.000001 -0.000002 -0.000001 -9.103622 -0.043149 -1.865137 -0.078056 -12.020643 0.865402 0.642599 -2.362540 30.428459 0.097969 -0.951301 11.761145 0.000000 0.000000 -0.000002 -8.076698 -0.486742 -3.806339 3.216764 -9.264322 9.560993 0.250816 -1.509233 18.870341 0.175841 -1.269005 15.778994 -0.000002 0.000002 0.000004 4.570402 11.014644 -2.160885 -0.553952 3.885532 9.709622 -15.801498 -14.321370 26.699648 -0.000009 -32.675307 -0.000008 -13.048732 -22.682524 11.562499 2.466105 -1.576256 2.681726 0.924059 11.806539 1.573371 6.586077 17.105290 1.767475 2.647895 -1.528740 1.528754 -10.018492 -15.623583 5.715617 1.998953 -1.154051 1.154112 0.000002 -0.000003 0.000004 9.109361 -0.518049 2.259931 -4.218853 -7.089755 8.521207 0.027560 0.568358 -5.554977 0.000848 0.099987 -0.975800 0.000000 -0.000002 0.000000 9.533445 -0.000034 0.000024 0.776332 7.768826 9.647124 0.174598 1.421072 -14.008854 0.140043 -1.274581 12.539298 0.000002 -0.000003 0.000002 9.104537 -0.043051 -1.865072 2.321919 4.574609 5.297178 0.101163 1.085274 -10.652689 0.061537 0.847805 -8.302592 -0.000007 -0.000002 -0.000002 8.077844 -0.486939 -3.806276 -0.695519 12.396500 2.339390 0.078499 0.956908 -9.380392 0.012244 -0.379080 3.701766 -0.000001 -0.000000 0.000002 -8.207805 -6.751702 -1.599488 -56.510646 -5.628059 -14.390268 94.067080 1.601123 3.986180 -9.042364 1.596295 -4.951342 -5.231779 0.000000 -0.000003 0.000001 -0.000000 -0.000001 8.207802 -6.751693 -1.599528 -40.820274 8.553939 5.508241 34.558657 -3.448157 -1.402991 35.974531 4.163878 2.986843 -0.058074 -0.000000 0.000003 -0.000002 -0.000002 0.000000 
-2.249163 109.823845 -272.591675 11.206002 -162.030283 -5.815653 0.000010 10.181560 0.131568 28.585962 -10.643217 11.181696 4.508392 -1.972060 3.994599 4.612850 -1.750905 4.010334 -0.000002 16.740372 -2.049015 10.599395 -0.554161 -2.111781 0.000001 9.617840 1.684985 2.592894 -4.922227 -2.324858 -0.000003 22.037384 7.501060 0.000001 0.000000 -0.000000 -4.570000 11.014874 -2.160824 -2.718312 -18.095283 1.164649 27.712560 -14.357625 57.565312 -0.000003 18.553594 0.000030 -8.486248 -23.714045 -6.831491 -2.464804 -1.573989 2.681893 -19.344955 1.507221 -4.444128 11.071868 -32.531675 -1.602446 -2.646273 -1.527809 1.527819 -7.721808 5.810621 -12.436148 -1.994584 -1.151577 1.151566 0.000002 -0.000003 -0.000003 -9.108326 -0.517887 2.259797 0.094556 -1.624875 -8.092816 0.111982 -1.016236 12.577106 0.024339 -0.476048 5.854005 -0.000003 0.000000 0.000001 -9.532512 -0.000002 -0.000014 -0.190047 -4.540052 4.957381 0.297285 -1.638846 20.561982 0.050739 -0.686304 8.455802 0.000001 0.000002 0.000000 -9.103617 -0.043118 -1.865130 0.566605 -12.350129 4.604319 0.662923 -2.396786 30.918108 0.106263 -0.990249 12.250112 -0.000000 0.000003 0.000001 -8.076714 -0.486715 -3.806309 3.972115 -9.109962 16.869584 0.209200 -1.381501 17.220054 0.141160 -1.139202 14.129010 0.000001 0.000001 -0.000002 4.570398 11.014711 -2.160844 -0.139105 1.666509 9.429556 -28.773736 -15.781196 17.933020 0.000002 -54.814010 0.000018 -19.952289 -29.579944 -5.471055 2.466159 -1.576232 2.681690 -1.241560 9.849587 0.104372 6.586924 17.111755 1.768134 2.647888 -1.528744 1.528748 -8.305919 -10.922902 6.030828 1.998924 -1.154084 1.154072 -0.000001 0.000000 -0.000003 9.109370 -0.518031 2.259889 -5.440702 -5.388711 0.283396 0.082796 0.982595 -9.634622 0.022637 0.515165 -5.033679 -0.000000 0.000007 -0.000001 9.533463 -0.000017 -0.000003 1.855891 9.798214 -0.491098 0.252074 1.701704 -16.852264 0.087851 -1.011759 9.923368 0.000004 -0.000000 0.000001 9.104568 -0.043028 -1.865115 2.801453 5.216468 -4.098085 0.231193 1.631206 -16.134083 0.163524 1.375994 -13.555904 0.000003 -0.000000 0.000001 8.077862 -0.486917 -3.806308 -0.925066 11.522097 -3.396749 0.134770 1.250764 -12.301336 0.000006 0.009675 -0.094518 0.000002 -0.000000 0.000001 -8.207782 -6.751704 -1.599538 -60.208896 -3.440709 -13.647529 83.668977 -4.941889 5.585627 -8.082642 2.156640 -5.080257 -8.069621 -0.000003 0.000003 0.000000 0.000000 0.000000 8.207827 -6.751694 -1.599573 -36.671562 9.604703 6.236646 37.677116 -4.372806 0.025232 36.317687 3.361317 -1.979103 1.013131 0.000007 -0.000001 -0.000003 -0.000001 0.000001 
